<svg xmlns="http://www.w3.org/2000/svg" width="527" height="172" viewBox="0 0 527 172" fill="none">
<path d="M 69.00 117.78 L 68.00 117.50 L 62.50 112.00 L 62.20 111.00 L 64.80 107.00 L 68.67 102.00 L 77.00 93.42 L 80.00 90.73 L 88.00 84.73 L 96.00 80.00 L 105.00 75.73 L 113.00 72.89 L 121.00 70.80 L 127.00 69.67 L 139.00 68.67 L 147.00 68.99 L 147.33 68.00 L 147.33 54.00 L 147.00 52.89 L 143.00 52.50 L 132.00 52.67 L 123.00 53.67 L 109.00 56.89 L 103.00 58.80 L 96.00 61.62 L 84.00 67.73 L 78.00 71.58 L 71.00 76.73 L 64.00 82.80 L 60.80 86.00 L 54.73 93.00 L 49.00 101.00 L 48.00 101.50 L 47.00 101.50 L 46.00 100.50 L 44.00 100.50 L 43.00 99.50 L 42.00 99.50 L 41.00 98.50 L 40.00 98.27 L 39.73 98.00 L 44.54 91.00 L 47.58 87.00 L 51.50 83.00 L 51.50 82.00 L 56.00 77.50 L 65.00 69.62 L 72.00 64.53 L 73.00 63.50 L 74.00 63.50 L 76.00 61.50 L 77.00 61.50 L 79.00 59.50 L 80.00 59.50 L 81.00 58.50 L 82.00 58.50 L 83.00 57.50 L 84.00 57.50 L 85.00 56.50 L 86.00 56.50 L 87.00 55.50 L 88.00 55.50 L 89.00 54.50 L 90.00 54.50 L 91.00 53.50 L 107.00 47.80 L 116.00 45.57 L 128.00 43.67 L 135.00 43.33 L 148.00 43.50 L 156.00 44.47 L 156.50 45.00 L 156.50 96.00 L 156.00 96.50 L 155.00 95.50 L 151.00 95.50 L 150.00 94.50 L 148.00 94.50 L 147.33 94.00 L 147.33 79.00 L 147.00 78.67 L 140.00 78.00 L 138.00 78.33 L 134.00 78.33 L 129.00 78.80 L 119.00 80.80 L 110.00 83.73 L 103.00 86.80 L 96.00 90.67 L 90.00 94.73 L 84.00 99.58 L 77.58 106.00 L 72.73 112.00 L 69.00 117.78 Z" fill="#c8d29c" fill-rule="evenodd"/>
<path d="M 7.00 95.50 L 2.00 95.50 L 1.33 95.00 L 1.33 44.00 L 2.00 43.50 L 17.00 43.50 L 27.00 44.67 L 41.00 47.73 L 61.00 53.33 L 72.00 55.33 L 81.00 55.47 L 88.00 54.38 L 88.50 55.00 L 88.00 55.50 L 87.00 55.50 L 86.00 56.50 L 85.00 56.50 L 84.00 57.50 L 83.00 57.50 L 82.00 58.50 L 81.00 58.50 L 80.00 59.50 L 79.00 59.50 L 77.00 61.50 L 76.00 61.50 L 74.00 63.50 L 73.00 63.50 L 72.00 64.50 L 71.00 64.50 L 63.00 63.33 L 51.00 60.33 L 39.00 56.80 L 25.00 53.67 L 18.00 53.00 L 17.00 52.67 L 11.00 52.50 L 10.50 53.00 L 10.50 68.00 L 11.00 68.67 L 12.00 69.00 L 15.00 69.00 L 22.00 69.67 L 35.00 71.73 L 44.00 73.67 L 51.00 75.57 L 55.00 76.80 L 55.50 78.00 L 51.50 82.00 L 51.50 83.00 L 50.00 84.50 L 49.00 85.00 L 48.00 84.47 L 42.00 82.80 L 27.00 79.73 L 20.00 78.73 L 11.00 78.11 L 10.50 79.00 L 10.50 94.00 L 10.00 94.50 L 8.00 94.50 L 7.00 95.50 Z" fill="#5059bc" fill-rule="evenodd"/>
<path d="M 89.00 170.00 L 84.00 170.50 L 70.00 170.27 L 59.00 168.20 L 53.00 166.33 L 46.00 163.43 L 40.00 160.33 L 31.00 154.33 L 26.00 150.11 L 21.80 146.00 L 16.67 140.00 L 10.73 131.00 L 7.67 125.00 L 4.62 117.00 L 2.80 110.00 L 1.67 103.00 L 1.50 96.00 L 2.00 95.50 L 7.00 95.50 L 8.00 94.50 L 19.00 94.33 L 25.00 94.67 L 35.00 96.73 L 40.00 98.50 L 41.00 98.50 L 42.00 99.50 L 43.00 99.50 L 44.00 100.50 L 46.00 100.50 L 47.00 101.50 L 48.00 101.53 L 49.00 102.50 L 53.00 104.73 L 60.00 109.80 L 68.50 118.00 L 74.20 126.00 L 77.80 133.00 L 79.00 134.67 L 81.80 129.00 L 85.54 123.00 L 88.58 119.00 L 92.20 115.00 L 99.00 108.80 L 108.00 102.80 L 114.00 99.89 L 120.00 97.57 L 127.00 95.67 L 133.00 94.67 L 139.00 94.33 L 150.00 94.50 L 151.00 95.50 L 155.00 95.50 L 156.50 97.00 L 156.33 101.00 L 154.27 113.00 L 152.43 119.00 L 150.00 125.00 L 146.43 132.00 L 143.27 137.00 L 138.54 143.00 L 132.80 149.00 L 128.00 153.27 L 124.00 156.33 L 116.00 161.33 L 110.00 164.20 L 102.00 167.20 L 94.00 169.27 L 89.00 170.00 Z M 74.11 161.00 L 74.33 156.00 L 73.38 149.00 L 72.20 144.00 L 70.43 139.00 L 68.00 134.00 L 64.33 128.00 L 61.20 124.00 L 57.00 119.62 L 51.00 114.67 L 48.00 112.67 L 43.00 109.80 L 36.00 106.80 L 28.00 104.62 L 22.00 103.67 L 16.00 103.50 L 12.00 103.67 L 11.60 104.00 L 11.67 107.00 L 13.80 115.00 L 15.73 120.00 L 18.67 126.00 L 22.54 132.00 L 25.58 136.00 L 31.20 142.00 L 36.00 146.27 L 40.00 149.27 L 45.00 152.38 L 53.00 156.33 L 59.00 158.43 L 66.00 160.27 L 73.00 161.20 L 74.11 161.00 Z M 85.97 161.00 L 96.00 159.27 L 102.00 157.38 L 107.00 155.33 L 113.00 152.27 L 116.00 150.38 L 124.00 144.42 L 126.58 142.00 L 132.20 136.00 L 135.27 132.00 L 139.00 126.00 L 142.43 119.00 L 144.27 114.00 L 146.27 106.00 L 146.27 104.00 L 146.00 103.73 L 142.00 103.50 L 136.00 103.67 L 129.00 104.73 L 122.00 106.73 L 115.00 109.67 L 110.00 112.54 L 104.00 116.80 L 100.42 120.00 L 96.58 124.00 L 92.73 129.00 L 89.67 134.00 L 86.57 141.00 L 84.73 147.00 L 83.67 153.00 L 83.50 156.00 L 83.67 161.00 L 84.00 161.33 L 85.97 161.00 Z" fill="#8a9a46" fill-rule="evenodd"/>
<path d="M 218.00 56.00 L 216.00 56.00 L 214.00 54.20 L 212.00 55.50 L 210.00 56.27 L 208.00 56.50 L 205.00 56.33 L 202.00 55.33 L 200.00 54.11 L 197.80 52.00 L 196.57 50.00 L 195.53 47.00 L 195.33 42.00 L 195.57 40.00 L 196.67 37.00 L 198.20 35.00 L 201.00 32.50 L 203.00 31.53 L 206.00 30.67 L 210.00 30.80 L 213.00 31.67 L 216.00 33.62 L 217.20 35.00 L 218.43 37.00 L 218.67 38.00 L 217.00 39.20 L 215.00 39.73 L 213.11 37.00 L 211.00 35.50 L 208.00 34.67 L 207.00 34.73 L 204.00 35.67 L 202.00 37.22 L 200.67 39.00 L 199.67 42.00 L 199.67 45.00 L 200.57 48.00 L 203.22 51.00 L 206.00 52.33 L 208.00 52.47 L 210.00 52.11 L 212.00 51.11 L 213.20 50.00 L 214.38 48.00 L 214.00 47.44 L 213.00 47.33 L 207.00 47.33 L 206.67 47.00 L 206.50 46.00 L 206.50 44.00 L 207.00 43.33 L 218.00 43.33 L 218.67 44.00 L 218.67 55.00 L 218.00 56.00 Z M 253.00 56.11 L 252.00 56.33 L 249.00 56.20 L 246.00 54.70 L 245.00 56.00 L 243.00 56.00 L 242.00 55.67 L 241.67 55.00 L 241.67 32.00 L 242.00 30.89 L 245.00 30.67 L 245.44 31.00 L 245.67 32.00 L 245.67 39.00 L 246.00 40.11 L 249.00 38.57 L 253.00 38.57 L 254.00 38.89 L 255.78 40.00 L 257.00 41.22 L 258.11 43.00 L 258.67 46.00 L 258.67 49.00 L 258.38 51.00 L 257.38 53.00 L 256.00 54.54 L 255.00 55.33 L 253.00 56.11 Z M 265.00 35.57 L 263.00 35.62 L 262.00 35.20 L 261.38 34.00 L 261.43 32.00 L 262.20 31.00 L 263.00 30.50 L 265.00 30.57 L 266.43 32.00 L 266.47 34.00 L 265.80 35.00 L 265.00 35.57 Z M 362.00 56.00 L 360.00 56.00 L 358.00 54.80 L 356.00 56.11 L 355.00 56.33 L 352.00 56.20 L 350.00 55.43 L 348.20 54.00 L 346.67 52.00 L 345.67 48.00 L 345.73 46.00 L 346.67 43.00 L 348.00 41.20 L 350.00 39.43 L 352.00 38.57 L 353.00 38.50 L 356.00 38.62 L 358.00 39.62 L 358.67 39.00 L 358.67 32.00 L 358.89 31.00 L 360.00 30.67 L 362.00 30.67 L 362.44 31.00 L 362.67 32.00 L 362.67 53.00 L 363.00 55.00 L 362.00 56.00 Z M 389.00 56.00 L 386.00 56.00 L 385.33 55.00 L 385.33 32.00 L 385.56 31.00 L 386.00 30.67 L 389.00 30.67 L 389.33 31.00 L 389.50 32.00 L 389.50 55.00 L 389.00 56.00 Z M 232.00 56.33 L 230.00 56.50 L 228.00 56.33 L 227.00 56.11 L 225.00 55.11 L 224.00 54.42 L 222.67 53.00 L 221.62 51.00 L 221.00 48.00 L 221.00 47.00 L 221.57 44.00 L 222.00 43.00 L 222.58 42.00 L 224.00 40.46 L 225.00 39.62 L 227.00 38.73 L 230.00 38.38 L 233.00 38.80 L 235.00 39.80 L 236.00 40.58 L 237.20 42.00 L 238.20 44.00 L 238.67 47.00 L 238.20 51.00 L 236.00 54.20 L 234.00 55.50 L 232.00 56.33 Z M 265.00 56.00 L 262.98 56.00 L 262.00 55.67 L 261.67 55.00 L 261.67 40.00 L 262.00 39.33 L 263.00 39.00 L 265.00 39.00 L 266.00 40.00 L 266.00 55.00 L 265.00 56.00 Z M 280.00 56.20 L 277.00 56.50 L 275.00 56.20 L 273.00 55.33 L 270.54 53.00 L 269.50 51.00 L 269.00 49.00 L 269.00 46.00 L 269.80 43.00 L 271.00 41.22 L 272.30 40.00 L 275.00 38.57 L 277.00 38.38 L 279.00 38.50 L 280.00 38.67 L 282.00 39.57 L 284.33 42.00 L 285.20 44.00 L 285.50 46.00 L 285.50 48.00 L 285.00 48.50 L 274.00 48.50 L 273.33 49.00 L 273.50 50.00 L 274.00 50.78 L 276.00 52.47 L 278.00 52.67 L 280.00 52.11 L 282.00 49.89 L 285.11 51.00 L 285.00 52.00 L 283.58 54.00 L 282.00 55.38 L 280.00 56.20 Z M 292.00 56.00 L 289.00 56.00 L 288.50 55.00 L 288.50 40.00 L 289.00 39.00 L 292.00 39.00 L 293.00 40.45 L 294.00 39.54 L 296.00 38.67 L 298.00 38.67 L 298.33 39.00 L 298.50 40.00 L 298.50 42.00 L 298.00 43.00 L 296.00 43.11 L 295.00 43.43 L 294.00 44.20 L 293.33 45.00 L 292.80 46.00 L 292.67 47.00 L 292.67 55.00 L 292.00 56.00 Z M 315.00 56.00 L 312.98 56.00 L 312.00 55.67 L 311.67 55.00 L 311.67 45.00 L 311.43 44.00 L 310.55 43.00 L 310.00 42.57 L 309.00 42.38 L 307.00 42.57 L 305.57 44.00 L 305.00 47.00 L 305.00 55.01 L 304.00 56.00 L 302.00 56.00 L 301.00 55.67 L 300.67 55.00 L 300.67 40.00 L 301.00 39.33 L 302.00 39.00 L 304.00 39.00 L 305.00 39.80 L 306.00 39.62 L 308.00 38.57 L 311.00 38.50 L 312.00 38.62 L 314.20 40.00 L 315.50 42.00 L 316.00 44.00 L 316.00 55.00 L 315.00 56.00 Z M 330.00 56.20 L 327.00 56.50 L 325.00 56.20 L 323.00 55.43 L 321.00 53.78 L 319.67 52.00 L 318.89 50.00 L 318.67 49.00 L 318.67 46.00 L 318.80 45.00 L 319.57 43.00 L 322.22 40.00 L 325.00 38.62 L 327.00 38.43 L 330.00 38.62 L 332.00 39.50 L 333.80 41.00 L 335.00 42.40 L 335.43 43.00 L 336.11 45.00 L 336.33 46.00 L 336.33 49.00 L 335.33 52.00 L 332.50 55.00 L 330.00 56.20 Z M 377.00 56.20 L 375.00 56.50 L 373.00 56.38 L 372.00 56.20 L 370.00 55.33 L 367.50 53.00 L 366.80 52.00 L 366.47 51.00 L 365.67 48.00 L 365.67 47.00 L 366.67 43.00 L 368.00 41.20 L 369.30 40.00 L 372.00 38.57 L 374.00 38.38 L 376.00 38.50 L 377.00 38.67 L 379.00 39.62 L 380.00 40.42 L 381.33 42.00 L 382.11 44.00 L 382.47 46.00 L 382.50 48.00 L 382.00 48.50 L 371.00 48.50 L 370.20 49.00 L 371.00 51.00 L 372.12 52.00 L 374.00 52.67 L 376.00 52.50 L 377.00 52.00 L 379.00 49.80 L 382.11 51.00 L 381.38 53.00 L 380.58 54.00 L 379.00 55.33 L 377.00 56.20 Z M 232.00 52.00 L 233.33 51.00 L 234.27 49.00 L 234.47 47.00 L 234.33 46.00 L 234.00 45.20 L 233.42 44.00 L 232.00 42.67 L 230.00 42.33 L 228.00 42.57 L 226.42 44.00 L 225.73 45.00 L 225.33 47.00 L 225.50 49.00 L 225.80 50.00 L 226.54 51.00 L 228.00 52.20 L 229.00 52.50 L 231.00 52.47 L 232.00 52.00 Z M 252.22 52.00 L 253.42 51.00 L 254.38 49.00 L 254.47 46.00 L 254.20 45.00 L 253.54 44.00 L 252.00 42.57 L 250.00 42.33 L 248.00 42.80 L 246.67 44.00 L 245.89 46.00 L 245.67 47.00 L 245.67 48.00 L 246.43 50.00 L 247.00 51.11 L 249.00 52.43 L 251.00 52.47 L 252.00 52.20 L 252.22 52.00 Z M 281.20 45.00 L 280.00 42.89 L 278.00 42.00 L 277.00 42.00 L 275.00 42.62 L 273.67 44.00 L 273.43 45.00 L 274.00 45.50 L 280.00 45.50 L 281.00 45.20 L 281.20 45.00 Z M 329.56 52.00 L 330.73 51.00 L 331.47 50.00 L 332.00 48.00 L 332.00 47.00 L 331.50 45.00 L 331.00 44.00 L 329.88 43.00 L 329.00 42.53 L 328.00 42.33 L 327.00 42.33 L 326.00 42.53 L 325.00 43.00 L 324.00 43.89 L 323.43 45.00 L 323.11 46.00 L 323.00 48.00 L 323.50 50.00 L 324.20 51.00 L 326.00 52.38 L 328.00 52.50 L 329.00 52.38 L 329.56 52.00 Z M 356.33 52.00 L 357.54 51.00 L 358.20 50.00 L 358.50 49.00 L 358.67 47.00 L 358.38 45.00 L 357.00 43.27 L 356.00 42.53 L 355.00 42.33 L 354.00 42.33 L 353.00 42.53 L 352.00 43.11 L 351.00 44.12 L 350.50 45.00 L 350.00 47.00 L 350.00 48.00 L 350.53 50.00 L 352.00 51.73 L 353.00 52.38 L 355.00 52.50 L 356.00 52.27 L 356.33 52.00 Z M 378.11 45.00 L 377.67 44.00 L 376.89 43.00 L 375.00 42.00 L 373.00 42.20 L 372.00 42.62 L 370.67 44.00 L 370.38 45.00 L 371.00 45.50 L 377.00 45.50 L 378.11 45.00 Z M 236.00 140.00 L 233.00 140.50 L 223.00 140.33 L 219.00 139.43 L 213.00 137.20 L 207.00 133.33 L 202.62 129.00 L 198.67 123.00 L 196.73 118.00 L 195.73 114.00 L 195.33 110.00 L 195.53 102.00 L 196.89 96.00 L 199.50 90.00 L 202.89 85.00 L 207.00 81.00 L 212.00 77.57 L 216.00 75.62 L 219.00 74.62 L 225.00 73.53 L 232.00 73.50 L 239.00 74.73 L 244.00 76.67 L 249.00 79.80 L 252.38 83.00 L 255.33 87.00 L 256.43 89.00 L 258.38 94.00 L 258.50 95.00 L 258.00 95.50 L 246.00 99.38 L 245.00 99.43 L 242.33 94.00 L 239.00 90.62 L 235.00 88.57 L 233.00 88.11 L 231.00 87.67 L 226.00 87.73 L 222.00 88.80 L 220.00 89.67 L 217.00 91.67 L 214.67 94.00 L 212.67 97.00 L 211.73 99.00 L 210.50 104.00 L 210.33 107.00 L 210.80 112.00 L 212.73 117.00 L 214.89 120.00 L 216.00 121.20 L 219.00 123.43 L 221.00 124.43 L 223.00 125.27 L 227.00 126.00 L 231.00 126.00 L 235.00 125.20 L 237.00 124.33 L 240.42 122.00 L 242.42 120.00 L 244.33 117.00 L 245.20 115.00 L 246.00 114.20 L 252.00 115.73 L 259.11 118.00 L 259.20 119.00 L 258.20 122.00 L 256.27 126.00 L 254.27 129.00 L 251.58 132.00 L 249.00 134.33 L 244.00 137.43 L 239.00 139.38 L 236.00 140.00 Z M 431.00 140.11 L 428.00 140.50 L 421.00 140.50 L 418.00 140.20 L 414.00 139.33 L 407.00 136.38 L 404.00 134.46 L 400.00 131.20 L 396.58 127.00 L 393.67 122.00 L 391.62 116.00 L 390.67 110.00 L 390.67 104.00 L 391.00 102.00 L 392.62 95.00 L 395.00 90.00 L 396.80 87.00 L 402.45 81.00 L 407.00 77.80 L 411.00 75.80 L 419.00 73.67 L 427.00 73.50 L 430.00 73.73 L 437.00 75.57 L 441.00 77.50 L 443.00 78.73 L 445.70 81.00 L 449.42 85.00 L 452.33 90.00 L 453.20 92.00 L 453.89 95.00 L 451.00 96.38 L 441.00 99.47 L 440.22 99.00 L 439.00 96.01 L 438.00 94.40 L 435.00 91.20 L 433.00 89.67 L 431.00 88.80 L 427.00 87.73 L 422.00 87.67 L 418.00 88.57 L 414.00 90.62 L 412.20 92.00 L 410.00 94.30 L 407.62 98.00 L 406.80 100.00 L 405.67 106.00 L 405.67 108.00 L 406.57 113.00 L 407.67 116.00 L 410.42 120.00 L 413.00 122.42 L 416.00 124.27 L 418.00 125.11 L 422.00 126.00 L 426.00 126.00 L 430.00 125.27 L 432.00 124.50 L 434.60 123.00 L 438.00 119.70 L 439.27 118.00 L 441.00 114.22 L 444.00 114.73 L 454.00 117.62 L 454.50 118.00 L 454.38 120.00 L 452.33 125.00 L 449.00 129.78 L 445.80 133.00 L 443.00 135.38 L 440.00 137.20 L 435.00 139.20 L 431.00 140.11 Z M 499.00 140.00 L 496.00 140.50 L 486.00 140.27 L 479.00 138.33 L 473.00 135.27 L 469.00 132.20 L 466.80 130.00 L 463.73 126.00 L 460.67 120.00 L 459.67 117.00 L 458.50 110.00 L 458.67 102.00 L 459.73 97.00 L 460.73 94.00 L 462.57 90.00 L 463.73 88.00 L 466.80 84.00 L 469.00 81.89 L 475.00 77.62 L 479.00 75.73 L 482.00 74.73 L 489.00 73.50 L 497.00 73.67 L 502.00 74.73 L 505.00 75.73 L 509.00 77.62 L 512.00 79.54 L 516.00 82.80 L 519.46 87.00 L 522.43 92.00 L 524.27 97.00 L 525.33 102.00 L 525.33 112.00 L 524.27 117.00 L 523.27 120.00 L 520.27 126.00 L 517.20 130.00 L 515.00 132.20 L 511.00 135.27 L 505.00 138.33 L 499.00 140.00 Z M 321.00 139.33 L 308.00 139.33 L 306.89 139.00 L 306.67 138.00 L 306.67 115.00 L 306.44 114.00 L 306.00 113.67 L 282.00 113.67 L 281.50 115.00 L 281.33 139.00 L 281.00 139.33 L 268.00 139.33 L 266.89 139.00 L 266.67 138.00 L 266.67 76.00 L 267.00 74.89 L 268.00 74.67 L 281.00 74.67 L 281.33 75.00 L 281.50 99.00 L 282.00 100.00 L 306.00 100.00 L 306.67 99.00 L 306.67 76.00 L 306.89 75.00 L 308.00 74.67 L 321.00 74.67 L 321.33 75.00 L 321.50 138.00 L 321.00 139.33 Z M 391.00 139.33 L 377.00 139.33 L 375.80 138.00 L 372.00 127.16 L 371.00 126.33 L 348.00 126.33 L 346.73 127.00 L 343.38 137.00 L 342.00 139.33 L 328.00 139.33 L 327.56 139.00 L 327.53 138.00 L 328.62 135.00 L 345.38 91.00 L 350.80 76.00 L 352.00 74.67 L 367.00 74.67 L 368.20 75.00 L 391.43 137.00 L 391.67 139.00 L 391.00 139.33 Z M 494.98 126.00 L 498.00 125.38 L 502.00 123.46 L 505.00 121.20 L 507.50 118.00 L 509.38 114.00 L 510.33 110.00 L 510.33 104.00 L 509.43 100.00 L 508.11 97.00 L 506.11 94.00 L 504.00 91.80 L 501.00 89.80 L 498.00 88.57 L 494.00 87.67 L 489.00 87.80 L 485.00 88.89 L 483.00 89.80 L 480.00 91.80 L 477.80 94.00 L 475.80 97.00 L 474.57 100.00 L 473.67 104.00 L 473.67 110.00 L 474.57 114.00 L 475.89 117.00 L 477.89 120.00 L 480.00 122.00 L 482.00 123.46 L 486.00 125.38 L 491.00 126.33 L 494.98 126.00 Z M 366.62 112.00 L 366.11 110.00 L 364.57 106.00 L 363.38 102.00 L 362.80 101.00 L 360.20 93.00 L 360.00 92.60 L 359.00 92.84 L 352.27 112.00 L 353.00 113.00 L 366.00 113.00 L 366.62 112.00 Z" fill="#00203a" fill-rule="evenodd"/>
<path d="M 66.00 18.27 L 65.00 18.50 L 62.00 18.50 L 60.00 18.11 L 57.00 16.20 L 55.89 15.00 L 54.73 13.00 L 54.33 11.00 L 54.33 8.00 L 54.73 6.00 L 55.89 4.00 L 57.00 2.80 L 59.00 1.43 L 61.00 0.57 L 65.00 0.50 L 68.00 1.62 L 70.58 4.00 L 71.33 5.00 L 72.11 7.00 L 72.47 10.00 L 72.11 12.00 L 71.33 14.00 L 68.50 17.00 L 66.00 18.27 Z M 97.00 18.38 L 92.00 18.38 L 90.00 17.50 L 88.00 16.00 L 87.00 14.78 L 85.62 12.00 L 85.33 9.00 L 85.62 7.00 L 86.50 5.00 L 88.00 3.00 L 89.22 2.00 L 92.00 0.62 L 97.00 0.62 L 99.00 1.50 L 102.00 4.30 L 103.33 7.00 L 103.50 11.00 L 103.33 12.00 L 102.50 14.00 L 99.70 17.00 L 97.00 18.38 Z M 35.00 30.27 L 31.00 30.50 L 30.00 30.33 L 28.00 29.50 L 25.80 28.00 L 23.80 25.00 L 23.33 22.00 L 23.38 20.00 L 23.80 18.00 L 25.80 15.00 L 29.00 12.80 L 33.00 12.33 L 35.00 12.62 L 37.00 13.50 L 38.80 15.00 L 40.00 16.40 L 41.27 19.00 L 41.47 20.00 L 41.43 23.00 L 40.38 26.00 L 38.80 28.00 L 37.55 29.00 L 35.00 30.27 Z M 128.00 30.27 L 124.00 30.50 L 123.00 30.33 L 121.00 29.50 L 118.80 28.00 L 116.80 25.00 L 116.33 22.00 L 116.38 20.00 L 116.80 18.00 L 119.00 14.80 L 122.00 12.80 L 126.00 12.33 L 128.00 12.62 L 130.00 13.50 L 131.80 15.00 L 133.00 16.40 L 134.27 19.00 L 134.47 20.00 L 134.43 23.00 L 133.38 26.00 L 131.80 28.00 L 130.55 29.00 L 128.00 30.27 Z" fill="#f26df9" fill-rule="evenodd"/>
</svg>