<svg xmlns="http://www.w3.org/2000/svg" viewBox="0 0 1280 1280" width="1280" height="1280">
  <defs>
    <linearGradient id="bgBlue" x1="20%" y1="15%" x2="80%" y2="85%">
      <stop offset="0%" stop-color="#0b447a"/>
      <stop offset="100%" stop-color="#073b6e"/>
    </linearGradient>
    <linearGradient id="pinkGrad" x1="35%" y1="25%" x2="75%" y2="75%">
      <stop offset="0%" stop-color="#f07ae8"/>
      <stop offset="100%" stop-color="#ef64d8"/>
    </linearGradient>
  </defs>
  <circle cx="640" cy="640" r="380" fill="url(#bgBlue)" stroke="#1f78c9" stroke-width="2"/>
  <g fill="url(#pinkGrad)">
    <path d="M 625.0 811.5 L 599.0 811.5 L 598.0 810.5 L 590.0 810.5 L 585.0 808.5 L 580.0 808.5 L 572.0 806.5 L 542.0 794.5 L 516.0 777.5 L 495.5 757.0 L 479.5 734.0 L 470.5 715.0 L 470.5 712.0 L 467.5 706.0 L 465.5 695.0 L 463.5 692.0 L 461.5 676.0 L 460.5 675.0 L 460.5 648.0 L 461.5 647.0 L 462.5 633.0 L 467.5 613.0 L 478.5 588.0 L 493.5 565.0 L 516.0 542.5 L 530.0 532.5 L 544.0 524.5 L 546.0 524.5 L 548.0 522.5 L 562.0 516.5 L 565.0 516.5 L 580.0 511.5 L 596.0 509.5 L 597.0 508.5 L 600.0 508.5 L 601.5 510.0 L 601.5 514.0 L 599.5 517.0 L 591.5 542.0 L 589.5 545.0 L 588.5 551.0 L 584.5 559.0 L 568.0 566.5 L 566.0 566.5 L 564.0 568.5 L 562.0 568.5 L 555.0 572.5 L 538.5 586.0 L 529.5 596.0 L 522.5 607.0 L 517.5 617.0 L 514.5 628.0 L 512.5 631.0 L 512.5 635.0 L 509.5 646.0 L 509.5 677.0 L 513.5 694.0 L 525.5 718.0 L 540.0 735.5 L 558.0 749.5 L 574.0 757.5 L 591.0 762.5 L 596.0 762.5 L 603.0 764.5 L 625.0 764.5 L 646.0 759.5 L 656.0 754.5 L 658.0 754.5 L 679.0 740.5 L 699.0 720.5 L 747.0 720.5 L 750.5 723.0 L 745.5 734.0 L 732.5 754.0 L 719.0 768.5 L 701.0 783.5 L 683.0 794.5 L 662.0 803.5 L 635.0 810.5 L 626.0 810.5 Z"/>
    <path d="M 816.0 559.5 L 702.0 559.5 L 701.0 558.5 L 697.0 558.5 L 696.0 559.5 L 695.0 558.5 L 645.0 558.5 L 644.0 559.5 L 640.0 558.5 L 639.0 559.5 L 630.0 559.5 L 626.5 556.0 L 640.5 517.0 L 645.0 510.5 L 823.0 510.5 L 824.0 509.5 L 833.0 509.5 L 834.5 511.0 L 834.5 513.0 L 829.5 528.0 L 827.5 531.0 L 827.5 534.0 L 825.5 537.0 L 819.5 555.0 Z"/>
    <path d="M 577.0 699.5 L 575.5 698.0 L 579.5 688.0 L 580.5 682.0 L 588.5 664.0 L 600.5 628.0 L 605.5 617.0 L 608.0 615.5 L 791.0 615.5 L 792.5 617.0 L 785.5 637.0 L 783.5 640.0 L 783.5 643.0 L 781.5 646.0 L 781.5 649.0 L 779.5 652.0 L 776.5 662.0 L 775.0 664.5 L 771.0 666.5 L 720.0 666.5 L 719.0 665.5 L 621.0 666.5 L 613.0 668.5 L 601.0 674.5 L 593.0 680.5 L 582.5 691.0 L 581.5 694.0 Z"/>
  </g>
</svg>