<svg xmlns="http://www.w3.org/2000/svg" width="1006" height="622" viewBox="0 0 1006 622">
  <defs>
    <linearGradient id="pinkGrad" x1="18%" y1="18%" x2="82%" y2="82%">
      <stop offset="0%" stop-color="#f58ae9"/>
      <stop offset="55%" stop-color="#ef72e3"/>
      <stop offset="100%" stop-color="#e76bdc"/>
    </linearGradient>
    <linearGradient id="blueGrad" x1="0%" y1="18%" x2="100%" y2="82%">
      <stop offset="0%" stop-color="#0b4b87"/>
      <stop offset="100%" stop-color="#083764"/>
    </linearGradient>
    <linearGradient id="textGrad" x1="0%" y1="0%" x2="0%" y2="100%">
      <stop offset="0%" stop-color="#164d79"/>
      <stop offset="100%" stop-color="#0d395f"/>
    </linearGradient>
  </defs>
  <g fill="url(#pinkGrad)" fill-rule="evenodd">
    <path d="M 428.0,26.0 L 398.0,36.0 L 373.0,50.0 L 355.0,64.0 L 340.0,79.0 L 324.0,100.0 L 311.0,125.0 L 302.0,157.0 L 299.0,192.0 L 303.0,223.0 L 312.0,252.0 L 331.0,285.0 L 356.0,312.0 L 376.0,327.0 L 408.0,343.0 L 437.0,351.0 L 469.0,353.0 L 508.0,348.0 L 542.0,334.0 L 571.0,315.0 L 597.0,288.0 L 612.0,264.0 L 614.0,255.0 L 610.0,252.0 L 559.0,253.0 L 540.0,272.0 L 520.0,286.0 L 493.0,297.0 L 477.0,300.0 L 447.0,299.0 L 417.0,290.0 L 401.0,281.0 L 378.0,259.0 L 363.0,236.0 L 356.0,217.0 L 352.0,195.0 L 354.0,168.0 L 362.0,141.0 L 371.0,124.0 L 380.0,112.0 L 400.0,95.0 L 416.0,86.0 L 432.0,80.0 L 436.0,76.0 L 452.0,33.0 L 453.0,25.0 L 451.0,23.0 Z"/>
  </g>
  <g fill="url(#blueGrad)" fill-rule="evenodd">
    <path d="M 480.0,77.0 L 687.0,78.0 L 690.0,75.0 L 706.0,31.0 L 706.0,25.0 L 502.0,24.0 L 496.0,28.0 L 480.0,73.0 Z"/>
    <path d="M 424.0,232.0 L 426.0,232.0 L 436.0,219.0 L 453.0,204.0 L 463.0,199.0 L 476.0,195.0 L 639.0,195.0 L 644.0,190.0 L 652.0,164.0 L 660.0,145.0 L 660.0,141.0 L 658.0,139.0 L 459.0,139.0 L 454.0,144.0 L 449.0,161.0 L 424.0,228.0 Z"/>
  </g>
  <g fill="url(#textGrad)" fill-rule="evenodd">
    <path d="M 744.0,556.0 L 741.0,559.0 L 738.0,568.0 L 739.0,578.0 L 742.0,583.0 L 746.0,586.0 L 754.0,588.0 L 762.0,587.0 L 767.0,585.0 L 771.0,581.0 L 773.0,576.0 L 773.0,565.0 L 771.0,560.0 L 763.0,554.0 L 749.0,554.0 Z M 753.0,562.0 L 758.0,562.0 L 763.0,567.0 L 763.0,574.0 L 758.0,579.0 L 753.0,579.0 L 748.0,573.0 L 748.0,567.0 Z M 712.0,556.0 L 706.0,564.0 L 706.0,577.0 L 708.0,581.0 L 712.0,585.0 L 717.0,587.0 L 725.0,588.0 L 732.0,586.0 L 734.0,584.0 L 734.0,581.0 L 732.0,579.0 L 729.0,580.0 L 720.0,579.0 L 715.0,573.0 L 715.0,568.0 L 722.0,561.0 L 732.0,562.0 L 734.0,560.0 L 734.0,557.0 L 730.0,554.0 L 717.0,554.0 Z M 674.0,555.0 L 672.0,557.0 L 672.0,561.0 L 674.0,562.0 L 686.0,561.0 L 689.0,563.0 L 689.0,566.0 L 688.0,567.0 L 677.0,567.0 L 672.0,569.0 L 668.0,576.0 L 669.0,582.0 L 673.0,586.0 L 676.0,587.0 L 698.0,586.0 L 700.0,583.0 L 700.0,565.0 L 698.0,558.0 L 691.0,554.0 L 677.0,554.0 Z M 678.0,579.0 L 678.0,575.0 L 680.0,573.0 L 688.0,573.0 L 690.0,575.0 L 690.0,577.0 L 685.0,581.0 L 681.0,581.0 Z M 524.0,556.0 L 520.0,560.0 L 518.0,565.0 L 518.0,576.0 L 520.0,581.0 L 524.0,585.0 L 535.0,588.0 L 546.0,586.0 L 547.0,585.0 L 547.0,580.0 L 546.0,579.0 L 534.0,580.0 L 531.0,579.0 L 529.0,577.0 L 529.0,575.0 L 530.0,574.0 L 548.0,574.0 L 550.0,570.0 L 550.0,567.0 L 547.0,559.0 L 540.0,554.0 L 528.0,554.0 Z M 528.0,563.0 L 531.0,561.0 L 536.0,561.0 L 540.0,564.0 L 540.0,567.0 L 539.0,568.0 L 529.0,568.0 Z M 432.0,555.0 L 430.0,557.0 L 430.0,560.0 L 432.0,562.0 L 444.0,561.0 L 447.0,563.0 L 447.0,566.0 L 446.0,567.0 L 435.0,567.0 L 429.0,570.0 L 426.0,576.0 L 427.0,582.0 L 434.0,587.0 L 443.0,587.0 L 444.0,586.0 L 455.0,587.0 L 457.0,586.0 L 458.0,584.0 L 458.0,563.0 L 457.0,560.0 L 449.0,554.0 L 435.0,554.0 Z M 436.0,575.0 L 438.0,573.0 L 447.0,573.0 L 448.0,578.0 L 446.0,580.0 L 440.0,581.0 L 436.0,578.0 Z M 400.0,556.0 L 396.0,560.0 L 393.0,570.0 L 394.0,577.0 L 396.0,581.0 L 400.0,585.0 L 410.0,588.0 L 418.0,587.0 L 422.0,585.0 L 422.0,580.0 L 421.0,579.0 L 411.0,580.0 L 408.0,579.0 L 404.0,575.0 L 404.0,566.0 L 407.0,563.0 L 412.0,561.0 L 421.0,562.0 L 422.0,557.0 L 418.0,554.0 L 405.0,554.0 Z M 376.0,554.0 L 374.0,556.0 L 374.0,560.0 L 378.0,564.0 L 378.0,585.0 L 382.0,587.0 L 385.0,587.0 L 387.0,586.0 L 388.0,583.0 L 388.0,557.0 L 386.0,554.0 Z M 278.0,554.0 L 276.0,556.0 L 276.0,579.0 L 278.0,583.0 L 281.0,586.0 L 287.0,588.0 L 295.0,586.0 L 302.0,586.0 L 303.0,587.0 L 307.0,586.0 L 309.0,583.0 L 309.0,564.0 L 308.0,563.0 L 309.0,559.0 L 307.0,554.0 L 300.0,554.0 L 299.0,556.0 L 299.0,575.0 L 294.0,580.0 L 289.0,580.0 L 286.0,576.0 L 286.0,557.0 L 284.0,554.0 Z M 261.0,554.0 L 250.0,554.0 L 249.0,555.0 L 238.0,554.0 L 237.0,555.0 L 236.0,598.0 L 238.0,601.0 L 245.0,601.0 L 247.0,598.0 L 247.0,588.0 L 248.0,587.0 L 254.0,587.0 L 255.0,588.0 L 265.0,585.0 L 269.0,580.0 L 271.0,571.0 L 270.0,563.0 L 268.0,559.0 Z M 251.0,561.0 L 257.0,562.0 L 260.0,565.0 L 261.0,568.0 L 260.0,575.0 L 255.0,580.0 L 250.0,580.0 L 247.0,577.0 L 246.0,574.0 L 246.0,566.0 Z M 600.0,544.0 L 594.0,548.0 L 589.0,558.0 L 589.0,571.0 L 592.0,579.0 L 597.0,584.0 L 609.0,588.0 L 615.0,588.0 L 624.0,585.0 L 624.0,579.0 L 623.0,578.0 L 608.0,579.0 L 604.0,577.0 L 599.0,571.0 L 599.0,560.0 L 601.0,555.0 L 607.0,551.0 L 623.0,552.0 L 624.0,551.0 L 624.0,545.0 L 616.0,542.0 L 606.0,542.0 Z M 378.0,543.0 L 378.0,548.0 L 382.0,550.0 L 387.0,549.0 L 388.0,547.0 L 387.0,542.0 L 379.0,542.0 Z M 631.0,542.0 L 630.0,543.0 L 630.0,585.0 L 634.0,587.0 L 639.0,586.0 L 640.0,584.0 L 640.0,565.0 L 645.0,561.0 L 649.0,561.0 L 653.0,565.0 L 653.0,584.0 L 654.0,586.0 L 661.0,586.0 L 663.0,584.0 L 663.0,563.0 L 661.0,558.0 L 656.0,554.0 L 641.0,555.0 L 640.0,554.0 L 640.0,544.0 L 639.0,542.0 L 637.0,541.0 Z M 557.0,541.0 L 555.0,544.0 L 555.0,563.0 L 556.0,564.0 L 555.0,579.0 L 557.0,585.0 L 560.0,587.0 L 566.0,588.0 L 570.0,586.0 L 570.0,581.0 L 565.0,576.0 L 565.0,543.0 L 563.0,541.0 Z M 509.0,541.0 L 503.0,542.0 L 503.0,548.0 L 501.0,554.0 L 489.0,554.0 L 481.0,560.0 L 478.0,568.0 L 478.0,576.0 L 483.0,585.0 L 488.0,587.0 L 498.0,587.0 L 499.0,586.0 L 510.0,586.0 L 512.0,584.0 L 512.0,543.0 Z M 494.0,561.0 L 500.0,562.0 L 503.0,566.0 L 502.0,577.0 L 498.0,580.0 L 493.0,580.0 L 488.0,574.0 L 489.0,565.0 Z M 357.0,541.0 L 355.0,543.0 L 355.0,581.0 L 358.0,586.0 L 366.0,588.0 L 370.0,586.0 L 370.0,582.0 L 365.0,577.0 L 365.0,543.0 L 363.0,541.0 Z M 316.0,542.0 L 316.0,585.0 L 317.0,586.0 L 329.0,586.0 L 330.0,587.0 L 340.0,587.0 L 344.0,585.0 L 347.0,582.0 L 349.0,577.0 L 349.0,564.0 L 348.0,561.0 L 345.0,557.0 L 340.0,554.0 L 327.0,554.0 L 325.0,552.0 L 325.0,543.0 L 323.0,541.0 Z M 329.0,561.0 L 334.0,561.0 L 339.0,565.0 L 340.0,569.0 L 339.0,575.0 L 334.0,580.0 L 329.0,580.0 L 325.0,576.0 L 325.0,565.0 Z M 299.0,539.0 L 293.0,539.0 L 291.0,541.0 L 290.0,546.0 L 288.0,549.0 L 289.0,551.0 L 295.0,551.0 L 299.0,544.0 Z M 892.0,484.0 L 891.0,488.0 L 896.0,494.0 L 896.0,515.0 L 903.0,516.0 L 905.0,514.0 L 905.0,485.0 L 904.0,484.0 Z M 818.0,484.0 L 812.0,484.0 L 811.0,485.0 L 799.0,484.0 L 798.0,485.0 L 798.0,514.0 L 801.0,516.0 L 807.0,515.0 L 807.0,497.0 L 808.0,494.0 L 810.0,492.0 L 817.0,490.0 L 819.0,487.0 Z M 722.0,484.0 L 721.0,489.0 L 725.0,493.0 L 725.0,514.0 L 727.0,516.0 L 732.0,516.0 L 734.0,515.0 L 734.0,509.0 L 735.0,508.0 L 734.0,485.0 L 733.0,484.0 Z M 663.0,484.0 L 662.0,489.0 L 666.0,493.0 L 666.0,514.0 L 668.0,516.0 L 673.0,516.0 L 676.0,513.0 L 676.0,486.0 L 675.0,484.0 Z M 325.0,484.0 L 324.0,489.0 L 328.0,493.0 L 328.0,514.0 L 330.0,516.0 L 335.0,516.0 L 337.0,515.0 L 338.0,512.0 L 338.0,490.0 L 337.0,485.0 L 336.0,484.0 Z M 211.0,484.0 L 210.0,489.0 L 214.0,493.0 L 214.0,514.0 L 217.0,516.0 L 221.0,516.0 L 224.0,513.0 L 224.0,487.0 L 223.0,484.0 Z M 981.0,485.0 L 976.0,483.0 L 969.0,483.0 L 963.0,485.0 L 960.0,484.0 L 953.0,484.0 L 952.0,485.0 L 952.0,515.0 L 954.0,516.0 L 960.0,516.0 L 962.0,513.0 L 962.0,494.0 L 966.0,490.0 L 971.0,490.0 L 974.0,493.0 L 975.0,496.0 L 975.0,514.0 L 977.0,516.0 L 982.0,516.0 L 984.0,514.0 L 984.0,490.0 Z M 865.0,485.0 L 861.0,489.0 L 859.0,494.0 L 859.0,506.0 L 861.0,510.0 L 865.0,514.0 L 870.0,516.0 L 884.0,516.0 L 887.0,514.0 L 887.0,509.0 L 885.0,508.0 L 882.0,509.0 L 873.0,508.0 L 869.0,504.0 L 868.0,498.0 L 869.0,495.0 L 875.0,490.0 L 886.0,491.0 L 887.0,490.0 L 887.0,485.0 L 882.0,483.0 L 871.0,483.0 Z M 827.0,484.0 L 825.0,487.0 L 826.0,491.0 L 840.0,490.0 L 842.0,492.0 L 842.0,495.0 L 841.0,496.0 L 830.0,496.0 L 825.0,498.0 L 821.0,505.0 L 823.0,512.0 L 826.0,515.0 L 829.0,516.0 L 839.0,516.0 L 840.0,515.0 L 850.0,516.0 L 853.0,514.0 L 853.0,492.0 L 851.0,487.0 L 847.0,484.0 L 843.0,483.0 Z M 830.0,505.0 L 833.0,502.0 L 840.0,501.0 L 843.0,503.0 L 843.0,507.0 L 838.0,510.0 L 832.0,509.0 L 830.0,507.0 Z M 744.0,485.0 L 741.0,489.0 L 741.0,496.0 L 744.0,500.0 L 754.0,504.0 L 755.0,507.0 L 754.0,508.0 L 742.0,508.0 L 741.0,509.0 L 742.0,515.0 L 745.0,516.0 L 760.0,516.0 L 763.0,515.0 L 767.0,511.0 L 768.0,507.0 L 767.0,502.0 L 763.0,498.0 L 759.0,496.0 L 756.0,496.0 L 754.0,494.0 L 754.0,492.0 L 755.0,491.0 L 764.0,491.0 L 765.0,486.0 L 761.0,483.0 L 749.0,483.0 Z M 710.0,484.0 L 699.0,483.0 L 698.0,484.0 L 684.0,484.0 L 683.0,485.0 L 683.0,514.0 L 685.0,516.0 L 692.0,515.0 L 692.0,496.0 L 697.0,490.0 L 702.0,490.0 L 706.0,495.0 L 706.0,514.0 L 708.0,516.0 L 715.0,515.0 L 715.0,490.0 Z M 606.0,485.0 L 606.0,515.0 L 612.0,516.0 L 615.0,514.0 L 615.0,495.0 L 620.0,490.0 L 623.0,490.0 L 626.0,493.0 L 626.0,514.0 L 628.0,516.0 L 633.0,516.0 L 635.0,514.0 L 635.0,494.0 L 639.0,490.0 L 643.0,490.0 L 646.0,493.0 L 647.0,514.0 L 649.0,516.0 L 654.0,516.0 L 656.0,514.0 L 656.0,490.0 L 653.0,485.0 L 649.0,483.0 L 641.0,483.0 L 636.0,485.0 L 632.0,485.0 L 628.0,483.0 L 607.0,484.0 Z M 533.0,484.0 L 531.0,486.0 L 531.0,489.0 L 533.0,491.0 L 546.0,490.0 L 548.0,492.0 L 548.0,495.0 L 547.0,496.0 L 533.0,497.0 L 528.0,502.0 L 529.0,512.0 L 532.0,515.0 L 535.0,516.0 L 545.0,516.0 L 546.0,515.0 L 557.0,516.0 L 559.0,514.0 L 559.0,491.0 L 556.0,486.0 L 549.0,483.0 Z M 550.0,504.0 L 550.0,506.0 L 544.0,510.0 L 540.0,510.0 L 537.0,507.0 L 537.0,504.0 L 539.0,502.0 L 546.0,501.0 Z M 502.0,484.0 L 492.0,483.0 L 487.0,485.0 L 483.0,484.0 L 476.0,484.0 L 475.0,485.0 L 475.0,514.0 L 477.0,516.0 L 482.0,516.0 L 485.0,513.0 L 485.0,494.0 L 489.0,490.0 L 494.0,490.0 L 498.0,495.0 L 498.0,515.0 L 500.0,516.0 L 507.0,515.0 L 507.0,490.0 Z M 445.0,484.0 L 440.0,488.0 L 438.0,492.0 L 437.0,502.0 L 439.0,509.0 L 444.0,514.0 L 449.0,516.0 L 463.0,516.0 L 467.0,513.0 L 467.0,510.0 L 465.0,508.0 L 463.0,509.0 L 453.0,509.0 L 450.0,508.0 L 448.0,506.0 L 448.0,504.0 L 449.0,503.0 L 467.0,503.0 L 469.0,501.0 L 469.0,494.0 L 467.0,489.0 L 463.0,485.0 L 458.0,483.0 Z M 447.0,493.0 L 450.0,490.0 L 457.0,490.0 L 460.0,493.0 L 460.0,495.0 L 458.0,497.0 L 449.0,497.0 L 447.0,495.0 Z M 412.0,484.0 L 401.0,483.0 L 396.0,485.0 L 393.0,484.0 L 386.0,484.0 L 384.0,487.0 L 385.0,492.0 L 385.0,515.0 L 387.0,516.0 L 392.0,516.0 L 394.0,513.0 L 394.0,494.0 L 399.0,490.0 L 404.0,490.0 L 407.0,493.0 L 408.0,496.0 L 408.0,515.0 L 415.0,516.0 L 417.0,514.0 L 417.0,492.0 L 415.0,487.0 Z M 297.0,486.0 L 293.0,490.0 L 291.0,497.0 L 291.0,502.0 L 294.0,510.0 L 298.0,514.0 L 303.0,516.0 L 316.0,516.0 L 319.0,515.0 L 320.0,510.0 L 318.0,508.0 L 315.0,509.0 L 305.0,508.0 L 301.0,503.0 L 301.0,497.0 L 302.0,494.0 L 308.0,490.0 L 318.0,491.0 L 320.0,489.0 L 320.0,486.0 L 318.0,484.0 L 314.0,483.0 L 305.0,483.0 Z M 260.0,484.0 L 258.0,486.0 L 259.0,490.0 L 272.0,490.0 L 275.0,492.0 L 275.0,495.0 L 274.0,496.0 L 263.0,496.0 L 258.0,498.0 L 254.0,505.0 L 255.0,511.0 L 261.0,516.0 L 272.0,516.0 L 273.0,515.0 L 283.0,516.0 L 285.0,515.0 L 286.0,512.0 L 286.0,494.0 L 284.0,488.0 L 281.0,485.0 L 275.0,483.0 Z M 263.0,505.0 L 267.0,501.0 L 272.0,501.0 L 276.0,503.0 L 276.0,507.0 L 271.0,510.0 L 265.0,509.0 L 263.0,507.0 Z M 183.0,486.0 L 179.0,490.0 L 178.0,493.0 L 178.0,507.0 L 180.0,511.0 L 188.0,516.0 L 203.0,516.0 L 205.0,515.0 L 206.0,510.0 L 204.0,508.0 L 201.0,509.0 L 191.0,508.0 L 187.0,503.0 L 187.0,497.0 L 188.0,494.0 L 194.0,490.0 L 205.0,491.0 L 206.0,486.0 L 201.0,483.0 L 190.0,483.0 Z M 146.0,484.0 L 144.0,486.0 L 144.0,489.0 L 146.0,491.0 L 158.0,490.0 L 161.0,492.0 L 161.0,495.0 L 160.0,496.0 L 148.0,496.0 L 144.0,498.0 L 140.0,504.0 L 141.0,511.0 L 147.0,516.0 L 157.0,516.0 L 158.0,515.0 L 169.0,516.0 L 171.0,515.0 L 172.0,513.0 L 172.0,493.0 L 171.0,489.0 L 167.0,485.0 L 161.0,483.0 Z M 150.0,504.0 L 152.0,502.0 L 157.0,501.0 L 162.0,503.0 L 162.0,507.0 L 157.0,510.0 L 153.0,510.0 L 150.0,508.0 Z M 128.0,484.0 L 118.0,483.0 L 117.0,484.0 L 103.0,484.0 L 102.0,485.0 L 102.0,529.0 L 103.0,530.0 L 108.0,531.0 L 111.0,529.0 L 111.0,522.0 L 113.0,516.0 L 126.0,516.0 L 133.0,511.0 L 136.0,503.0 L 136.0,496.0 L 134.0,489.0 Z M 116.0,490.0 L 121.0,490.0 L 125.0,494.0 L 126.0,497.0 L 125.0,505.0 L 120.0,509.0 L 113.0,508.0 L 111.0,504.0 L 112.0,493.0 Z M 69.0,484.0 L 68.0,485.0 L 68.0,490.0 L 69.0,491.0 L 81.0,490.0 L 84.0,492.0 L 84.0,495.0 L 83.0,496.0 L 72.0,496.0 L 67.0,498.0 L 64.0,502.0 L 64.0,511.0 L 68.0,515.0 L 71.0,516.0 L 81.0,516.0 L 82.0,515.0 L 92.0,516.0 L 95.0,514.0 L 95.0,491.0 L 90.0,485.0 L 85.0,483.0 Z M 73.0,504.0 L 75.0,502.0 L 84.0,502.0 L 85.0,507.0 L 80.0,510.0 L 76.0,510.0 L 73.0,507.0 Z M 779.0,475.0 L 776.0,477.0 L 775.0,482.0 L 771.0,485.0 L 771.0,489.0 L 775.0,493.0 L 775.0,508.0 L 776.0,511.0 L 782.0,516.0 L 792.0,516.0 L 794.0,511.0 L 785.0,506.0 L 785.0,493.0 L 792.0,489.0 L 792.0,485.0 L 785.0,481.0 L 784.0,475.0 Z M 234.0,476.0 L 232.0,482.0 L 229.0,485.0 L 229.0,489.0 L 233.0,494.0 L 233.0,509.0 L 234.0,512.0 L 239.0,516.0 L 249.0,516.0 L 251.0,515.0 L 251.0,510.0 L 246.0,509.0 L 243.0,506.0 L 242.0,495.0 L 245.0,491.0 L 248.0,491.0 L 250.0,489.0 L 250.0,485.0 L 243.0,482.0 L 241.0,475.0 Z M 33.0,474.0 L 26.0,481.0 L 23.0,490.0 L 23.0,499.0 L 26.0,507.0 L 29.0,511.0 L 39.0,516.0 L 54.0,516.0 L 57.0,515.0 L 59.0,513.0 L 59.0,508.0 L 58.0,507.0 L 42.0,508.0 L 35.0,503.0 L 33.0,498.0 L 33.0,490.0 L 35.0,485.0 L 39.0,481.0 L 42.0,480.0 L 58.0,481.0 L 59.0,480.0 L 59.0,475.0 L 55.0,472.0 L 38.0,472.0 Z M 666.0,471.0 L 665.0,476.0 L 667.0,478.0 L 674.0,478.0 L 676.0,475.0 L 675.0,471.0 Z M 328.0,472.0 L 328.0,477.0 L 329.0,478.0 L 336.0,478.0 L 337.0,477.0 L 337.0,471.0 L 329.0,471.0 Z M 895.0,472.0 L 895.0,476.0 L 897.0,478.0 L 905.0,477.0 L 905.0,472.0 L 904.0,471.0 L 898.0,470.0 Z M 724.0,473.0 L 726.0,478.0 L 733.0,478.0 L 735.0,475.0 L 734.0,472.0 L 731.0,470.0 L 727.0,470.0 Z M 596.0,470.0 L 591.0,470.0 L 589.0,472.0 L 589.0,481.0 L 587.0,483.0 L 573.0,484.0 L 567.0,490.0 L 565.0,495.0 L 565.0,507.0 L 570.0,514.0 L 574.0,516.0 L 585.0,516.0 L 586.0,515.0 L 595.0,516.0 L 598.0,515.0 L 599.0,512.0 L 599.0,481.0 L 598.0,480.0 L 598.0,472.0 Z M 580.0,490.0 L 585.0,490.0 L 589.0,495.0 L 589.0,505.0 L 584.0,509.0 L 580.0,509.0 L 575.0,505.0 L 575.0,495.0 Z M 216.0,470.0 L 214.0,472.0 L 214.0,477.0 L 215.0,478.0 L 222.0,478.0 L 224.0,475.0 L 223.0,471.0 Z M 935.0,468.0 L 930.0,468.0 L 928.0,470.0 L 925.0,477.0 L 925.0,482.0 L 923.0,484.0 L 919.0,484.0 L 916.0,486.0 L 912.0,492.0 L 912.0,507.0 L 917.0,514.0 L 922.0,516.0 L 935.0,516.0 L 938.0,515.0 L 943.0,511.0 L 946.0,504.0 L 946.0,495.0 L 944.0,490.0 L 941.0,486.0 L 932.0,482.0 L 932.0,480.0 L 936.0,473.0 Z M 926.0,491.0 L 931.0,491.0 L 936.0,496.0 L 936.0,503.0 L 931.0,508.0 L 925.0,508.0 L 921.0,503.0 L 921.0,496.0 Z M 368.0,468.0 L 363.0,468.0 L 360.0,471.0 L 358.0,476.0 L 358.0,482.0 L 356.0,484.0 L 352.0,484.0 L 346.0,489.0 L 344.0,494.0 L 344.0,505.0 L 346.0,510.0 L 350.0,514.0 L 355.0,516.0 L 368.0,516.0 L 372.0,514.0 L 377.0,509.0 L 379.0,497.0 L 376.0,489.0 L 372.0,485.0 L 367.0,484.0 L 365.0,482.0 L 365.0,479.0 L 369.0,471.0 Z M 359.0,491.0 L 366.0,492.0 L 369.0,497.0 L 369.0,503.0 L 364.0,508.0 L 358.0,508.0 L 354.0,504.0 L 354.0,495.0 Z M 838.0,412.0 L 834.0,412.0 L 831.0,414.0 L 824.0,430.0 L 821.0,429.0 L 818.0,421.0 L 813.0,413.0 L 808.0,412.0 L 805.0,414.0 L 808.0,423.0 L 817.0,441.0 L 817.0,446.0 L 813.0,449.0 L 807.0,450.0 L 807.0,455.0 L 809.0,456.0 L 818.0,456.0 L 821.0,455.0 L 826.0,450.0 L 840.0,418.0 L 840.0,413.0 Z M 754.0,412.0 L 751.0,417.0 L 751.0,442.0 L 752.0,444.0 L 758.0,445.0 L 761.0,441.0 L 761.0,423.0 L 764.0,420.0 L 769.0,419.0 L 774.0,423.0 L 774.0,443.0 L 777.0,445.0 L 781.0,445.0 L 783.0,443.0 L 784.0,438.0 L 784.0,426.0 L 782.0,416.0 L 777.0,412.0 L 767.0,412.0 L 766.0,413.0 Z M 661.0,417.0 L 658.0,424.0 L 658.0,433.0 L 661.0,440.0 L 666.0,444.0 L 669.0,445.0 L 683.0,445.0 L 687.0,442.0 L 687.0,439.0 L 685.0,437.0 L 682.0,438.0 L 672.0,437.0 L 668.0,432.0 L 668.0,425.0 L 672.0,420.0 L 675.0,419.0 L 685.0,420.0 L 688.0,418.0 L 690.0,418.0 L 695.0,422.0 L 695.0,443.0 L 698.0,445.0 L 701.0,445.0 L 704.0,443.0 L 704.0,415.0 L 703.0,413.0 L 694.0,412.0 L 690.0,416.0 L 688.0,416.0 L 685.0,413.0 L 682.0,412.0 L 670.0,412.0 Z M 627.0,413.0 L 625.0,415.0 L 625.0,418.0 L 627.0,420.0 L 638.0,419.0 L 642.0,422.0 L 642.0,424.0 L 641.0,425.0 L 629.0,425.0 L 625.0,427.0 L 622.0,430.0 L 621.0,437.0 L 623.0,442.0 L 628.0,445.0 L 639.0,445.0 L 640.0,444.0 L 649.0,445.0 L 651.0,444.0 L 653.0,441.0 L 653.0,432.0 L 652.0,431.0 L 653.0,425.0 L 651.0,417.0 L 648.0,414.0 L 642.0,412.0 Z M 630.0,433.0 L 633.0,431.0 L 641.0,431.0 L 643.0,433.0 L 643.0,435.0 L 638.0,439.0 L 634.0,439.0 L 630.0,436.0 Z M 565.0,414.0 L 565.0,419.0 L 564.0,420.0 L 565.0,423.0 L 565.0,443.0 L 567.0,445.0 L 572.0,445.0 L 574.0,442.0 L 574.0,423.0 L 577.0,420.0 L 583.0,420.0 L 585.0,422.0 L 585.0,441.0 L 586.0,444.0 L 592.0,445.0 L 594.0,443.0 L 594.0,423.0 L 599.0,419.0 L 603.0,420.0 L 606.0,424.0 L 606.0,443.0 L 608.0,445.0 L 613.0,445.0 L 615.0,443.0 L 615.0,419.0 L 614.0,416.0 L 611.0,413.0 L 600.0,412.0 L 595.0,414.0 L 591.0,414.0 L 588.0,412.0 L 580.0,412.0 L 574.0,414.0 L 568.0,412.0 Z M 559.0,413.0 L 553.0,413.0 L 552.0,414.0 L 549.0,414.0 L 545.0,412.0 L 540.0,413.0 L 540.0,418.0 L 539.0,419.0 L 540.0,444.0 L 546.0,445.0 L 549.0,443.0 L 549.0,425.0 L 552.0,421.0 L 558.0,420.0 L 560.0,418.0 Z M 505.0,414.0 L 500.0,420.0 L 499.0,424.0 L 499.0,432.0 L 501.0,439.0 L 506.0,444.0 L 509.0,445.0 L 523.0,445.0 L 530.0,441.0 L 534.0,431.0 L 534.0,425.0 L 531.0,418.0 L 526.0,413.0 L 523.0,412.0 L 510.0,412.0 Z M 512.0,421.0 L 517.0,420.0 L 522.0,422.0 L 524.0,426.0 L 524.0,432.0 L 521.0,436.0 L 513.0,437.0 L 509.0,433.0 L 508.0,426.0 Z M 420.0,413.0 L 415.0,418.0 L 412.0,426.0 L 413.0,435.0 L 415.0,439.0 L 418.0,442.0 L 424.0,445.0 L 438.0,445.0 L 442.0,443.0 L 443.0,439.0 L 441.0,437.0 L 428.0,438.0 L 424.0,436.0 L 425.0,432.0 L 442.0,432.0 L 444.0,430.0 L 444.0,423.0 L 442.0,417.0 L 434.0,412.0 Z M 422.0,422.0 L 426.0,419.0 L 431.0,419.0 L 435.0,422.0 L 435.0,424.0 L 433.0,426.0 L 424.0,426.0 L 422.0,424.0 Z M 325.0,414.0 L 320.0,419.0 L 319.0,422.0 L 319.0,434.0 L 322.0,441.0 L 330.0,445.0 L 343.0,445.0 L 350.0,441.0 L 354.0,431.0 L 353.0,422.0 L 351.0,418.0 L 347.0,414.0 L 342.0,412.0 L 330.0,412.0 Z M 332.0,421.0 L 338.0,420.0 L 342.0,422.0 L 344.0,426.0 L 344.0,431.0 L 341.0,436.0 L 334.0,437.0 L 330.0,435.0 L 328.0,431.0 L 329.0,424.0 Z M 313.0,412.0 L 307.0,414.0 L 297.0,412.0 L 295.0,414.0 L 295.0,443.0 L 298.0,445.0 L 303.0,444.0 L 305.0,441.0 L 305.0,424.0 L 308.0,421.0 L 313.0,420.0 L 316.0,418.0 L 316.0,414.0 Z M 232.0,413.0 L 231.0,416.0 L 231.0,442.0 L 232.0,444.0 L 237.0,445.0 L 240.0,443.0 L 241.0,441.0 L 241.0,423.0 L 244.0,420.0 L 247.0,419.0 L 251.0,420.0 L 254.0,423.0 L 254.0,443.0 L 257.0,445.0 L 263.0,444.0 L 264.0,442.0 L 264.0,422.0 L 262.0,416.0 L 256.0,412.0 L 247.0,412.0 L 242.0,414.0 L 237.0,412.0 Z M 200.0,414.0 L 194.0,422.0 L 194.0,435.0 L 196.0,439.0 L 199.0,442.0 L 206.0,445.0 L 219.0,445.0 L 222.0,444.0 L 224.0,441.0 L 222.0,437.0 L 209.0,438.0 L 205.0,435.0 L 205.0,433.0 L 206.0,432.0 L 223.0,432.0 L 225.0,431.0 L 225.0,421.0 L 223.0,417.0 L 215.0,412.0 L 204.0,412.0 Z M 204.0,421.0 L 207.0,419.0 L 213.0,419.0 L 216.0,422.0 L 216.0,424.0 L 214.0,426.0 L 205.0,426.0 Z M 277.0,404.0 L 273.0,406.0 L 272.0,411.0 L 268.0,414.0 L 268.0,419.0 L 272.0,422.0 L 273.0,439.0 L 275.0,443.0 L 279.0,445.0 L 288.0,445.0 L 291.0,441.0 L 290.0,439.0 L 285.0,438.0 L 282.0,435.0 L 282.0,423.0 L 285.0,420.0 L 289.0,419.0 L 289.0,414.0 L 285.0,413.0 L 282.0,410.0 L 281.0,404.0 Z M 494.0,401.0 L 467.0,401.0 L 465.0,402.0 L 465.0,443.0 L 467.0,445.0 L 471.0,445.0 L 474.0,443.0 L 474.0,430.0 L 476.0,427.0 L 491.0,427.0 L 493.0,425.0 L 493.0,421.0 L 490.0,419.0 L 477.0,420.0 L 474.0,416.0 L 474.0,411.0 L 476.0,409.0 L 493.0,409.0 L 496.0,406.0 Z M 694.0,401.0 L 694.0,405.0 L 696.0,407.0 L 703.0,407.0 L 704.0,406.0 L 704.0,401.0 L 703.0,400.0 L 695.0,400.0 Z M 161.0,404.0 L 157.0,408.0 L 154.0,414.0 L 153.0,425.0 L 156.0,436.0 L 162.0,442.0 L 169.0,445.0 L 185.0,445.0 L 189.0,443.0 L 189.0,437.0 L 188.0,436.0 L 183.0,437.0 L 170.0,436.0 L 165.0,431.0 L 163.0,426.0 L 164.0,417.0 L 169.0,410.0 L 171.0,409.0 L 189.0,409.0 L 189.0,403.0 L 186.0,401.0 L 174.0,400.0 L 173.0,401.0 L 168.0,401.0 Z M 406.0,400.0 L 399.0,399.0 L 397.0,401.0 L 397.0,410.0 L 395.0,412.0 L 381.0,413.0 L 375.0,419.0 L 373.0,424.0 L 373.0,435.0 L 375.0,440.0 L 378.0,443.0 L 382.0,445.0 L 393.0,445.0 L 394.0,444.0 L 403.0,445.0 L 406.0,443.0 L 406.0,430.0 L 407.0,429.0 L 407.0,403.0 Z M 389.0,419.0 L 392.0,419.0 L 397.0,423.0 L 397.0,434.0 L 393.0,438.0 L 386.0,437.0 L 383.0,434.0 L 382.0,431.0 L 384.0,423.0 Z M 735.0,397.0 L 728.0,398.0 L 725.0,404.0 L 725.0,411.0 L 717.0,414.0 L 712.0,419.0 L 710.0,425.0 L 710.0,431.0 L 712.0,438.0 L 714.0,441.0 L 721.0,445.0 L 735.0,445.0 L 743.0,439.0 L 745.0,434.0 L 745.0,423.0 L 743.0,418.0 L 739.0,414.0 L 731.0,411.0 L 731.0,409.0 L 736.0,400.0 Z M 723.0,421.0 L 732.0,421.0 L 735.0,424.0 L 736.0,431.0 L 732.0,436.0 L 725.0,437.0 L 721.0,434.0 L 720.0,426.0 Z"/>
  </g>
</svg>